<?xml version="1.0" standalone="no"?>
<!DOCTYPE svg PUBLIC "-//W3C//DTD SVG 20010904//EN"
 "http://www.w3.org/TR/2001/REC-SVG-20010904/DTD/svg10.dtd">
<svg version="1.0" xmlns="http://www.w3.org/2000/svg"
 width="512.000000pt" height="512.000000pt" viewBox="0 0 512.000000 512.000000"
 preserveAspectRatio="xMidYMid meet">
<metadata>
Created by potrace 1.14, written by Peter Selinger 2001-2017
</metadata>
<g transform="translate(0.000000,512.000000) scale(0.100000,-0.100000)"
fill="#000000" stroke="none">
<path d="M2367 4905 c-1 -2 -65 -5 -142 -9 -77 -3 -151 -8 -165 -10 -14 -3
-56 -7 -95 -11 -38 -4 -72 -8 -75 -10 -3 -1 -32 -6 -65 -10 -32 -3 -62 -8 -65
-10 -3 -2 -23 -6 -45 -9 -254 -40 -562 -159 -765 -294 -152 -103 -334 -298
-429 -462 -127 -220 -225 -533 -265 -845 -3 -16 -7 -50 -10 -75 -20 -151 -30
-354 -30 -610 0 -200 10 -453 19 -500 2 -9 6 -41 9 -71 62 -544 218 -933 485
-1213 69 -72 191 -171 276 -223 60 -37 220 -118 255 -128 14 -4 43 -15 65 -25
76 -34 203 -68 385 -104 120 -23 153 -29 265 -41 28 -3 61 -8 75 -10 149 -25
765 -24 1020 0 88 9 262 33 300 41 14 3 39 8 55 11 92 14 276 66 406 116 106
40 312 148 339 177 3 3 23 17 46 32 112 72 295 278 385 433 137 236 232 558
274 925 3 30 8 69 10 85 24 196 24 886 0 1015 -1 8 -6 46 -10 85 -4 38 -8 72
-10 75 -2 3 -6 34 -10 70 -4 36 -9 68 -11 71 -2 4 -6 24 -10 45 -23 153 -98
383 -183 567 -77 163 -254 386 -388 488 -32 24 -66 51 -75 60 -27 23 -182 109
-273 150 -129 59 -342 127 -455 145 -14 2 -36 7 -50 10 -56 13 -111 22 -181
29 -24 2 -60 7 -79 9 -134 20 -288 28 -543 30 -130 2 -238 2 -240 1z"/>
</g>
</svg>
